<svg xmlns="http://www.w3.org/2000/svg" xmlns:xlink="http://www.w3.org/1999/xlink" width="500" zoomAndPan="magnify" viewBox="0 0 375 374.999991" height="500" preserveAspectRatio="xMidYMid meet" version="1.0"><defs><g/><clipPath id="361478e711"><path d="M 37.5 37.5 L 337.261719 37.5 L 337.261719 337.261719 L 37.5 337.261719 Z M 37.5 37.5 " clip-rule="nonzero"/></clipPath><clipPath id="768c54ceb6"><path d="M 136.472656 90.070312 L 184.472656 90.070312 L 184.472656 210.019531 L 136.472656 210.019531 Z M 136.472656 90.070312 " clip-rule="nonzero"/></clipPath><clipPath id="da6e611c67"><path d="M 190.523438 125.0625 L 238.523438 125.0625 L 238.523438 209.8125 L 190.523438 209.8125 Z M 190.523438 125.0625 " clip-rule="nonzero"/></clipPath></defs><rect x="-37.5" width="450" fill="#ffffff" y="-37.499999" height="449.999989" fill-opacity="1"/><rect x="-37.5" width="450" fill="#ffffff" y="-37.499999" height="449.999989" fill-opacity="1"/><rect x="-37.5" width="450" fill="#ffffff" y="-37.499999" height="449.999989" fill-opacity="1"/><g clip-path="url(#361478e711)"><path fill="#ef3f3f" d="M 187.378906 337.261719 C 147.363281 337.261719 109.683594 321.683594 81.410156 293.351562 C 53.074219 265.074219 37.5 227.394531 37.5 187.378906 C 37.5 147.363281 53.074219 109.683594 81.410156 81.410156 C 109.683594 53.074219 147.363281 37.5 187.378906 37.5 C 227.394531 37.5 265.074219 53.074219 293.351562 81.410156 C 321.683594 109.746094 337.261719 147.363281 337.261719 187.378906 C 337.261719 227.394531 321.683594 265.074219 293.351562 293.351562 C 265.074219 321.683594 227.394531 337.261719 187.378906 337.261719 Z M 187.378906 46.484375 C 149.761719 46.484375 114.355469 61.164062 87.757812 87.757812 C 61.164062 114.355469 46.484375 149.761719 46.484375 187.378906 C 46.484375 225 61.164062 260.402344 87.757812 287 C 114.355469 313.597656 149.761719 328.273438 187.378906 328.273438 C 225 328.273438 260.402344 313.597656 287 287 C 313.597656 260.402344 328.273438 225 328.273438 187.378906 C 328.273438 149.761719 313.597656 114.355469 287 87.757812 C 260.402344 61.164062 225 46.484375 187.378906 46.484375 Z M 187.378906 46.484375 " fill-opacity="1" fill-rule="nonzero"/></g><g clip-path="url(#768c54ceb6)"><path fill="#ef3f3f" d="M 136.472656 230.160156 L 184.472656 257.777344 L 184.472656 90.363281 L 136.472656 117.980469 Z M 136.472656 230.160156 " fill-opacity="1" fill-rule="nonzero"/></g><g clip-path="url(#da6e611c67)"><path fill="#3e3f43" d="M 238.523438 152.96875 L 190.523438 125.355469 L 190.523438 292.765625 L 238.523438 265.152344 Z M 238.523438 152.96875 " fill-opacity="1" fill-rule="nonzero"/></g><g fill="#ef3f3f" fill-opacity="1"><g transform="translate(65.830995, 238.601058)"><g><path d="M 5.90625 -14.75 L 0.09375 -14.75 L 0.09375 -17.5 L 14.953125 -17.5 L 14.953125 -14.75 L 9.15625 -14.75 L 9.15625 0 L 5.90625 0 Z M 5.90625 -14.75 "/></g></g></g><g fill="#ef3f3f" fill-opacity="1"><g transform="translate(84.378599, 238.601058)"><g><path d="M 15.46875 -2.71875 L 15.46875 0 L 2.34375 0 L 2.34375 -17.5 L 15.125 -17.5 L 15.125 -14.78125 L 5.59375 -14.78125 L 5.59375 -10.21875 L 14.046875 -10.21875 L 14.046875 -7.546875 L 5.59375 -7.546875 L 5.59375 -2.71875 Z M 15.46875 -2.71875 "/></g></g></g><g fill="#ef3f3f" fill-opacity="1"><g transform="translate(104.625937, 238.601058)"><g><path d="M 13.703125 -4.046875 L 4.953125 -4.046875 L 3.21875 0 L -0.125 0 L 7.75 -17.5 L 10.953125 -17.5 L 18.84375 0 L 15.453125 0 Z M 12.625 -6.59375 L 9.328125 -14.25 L 6.046875 -6.59375 Z M 12.625 -6.59375 "/></g></g></g><g fill="#ef3f3f" fill-opacity="1"><g transform="translate(126.847953, 238.601058)"><g><path d="M 18.421875 0 L 18.40625 -11.59375 L 12.65625 -2 L 11.203125 -2 L 5.453125 -11.453125 L 5.453125 0 L 2.34375 0 L 2.34375 -17.5 L 5.03125 -17.5 L 11.96875 -5.90625 L 18.796875 -17.5 L 21.46875 -17.5 L 21.5 0 Z M 18.421875 0 "/></g></g></g><g fill="#3e3f43" fill-opacity="1"><g transform="translate(154.213802, 238.601058)"><g><path d="M 18.421875 0 L 18.40625 -11.59375 L 12.65625 -2 L 11.203125 -2 L 5.453125 -11.453125 L 5.453125 0 L 2.34375 0 L 2.34375 -17.5 L 5.03125 -17.5 L 11.96875 -5.90625 L 18.796875 -17.5 L 21.46875 -17.5 L 21.5 0 Z M 18.421875 0 "/></g></g></g><g fill="#3e3f43" fill-opacity="1"><g transform="translate(181.585006, 238.601058)"><g><path d="M 2.34375 -17.5 L 5.59375 -17.5 L 5.59375 0 L 2.34375 0 Z M 2.34375 -17.5 "/></g></g></g><g fill="#3e3f43" fill-opacity="1"><g transform="translate(193.058732, 238.601058)"><g><path d="M 2.34375 -17.5 L 5.59375 -17.5 L 5.59375 -2.75 L 14.75 -2.75 L 14.75 0 L 2.34375 0 Z M 2.34375 -17.5 "/></g></g></g><g fill="#3e3f43" fill-opacity="1"><g transform="translate(211.531343, 238.601058)"><g><path d="M 10.53125 0.25 C 8.738281 0.25 7.125 -0.132812 5.6875 -0.90625 C 4.257812 -1.6875 3.132812 -2.765625 2.3125 -4.140625 C 1.5 -5.515625 1.09375 -7.050781 1.09375 -8.75 C 1.09375 -10.445312 1.5 -11.984375 2.3125 -13.359375 C 3.132812 -14.734375 4.257812 -15.804688 5.6875 -16.578125 C 7.125 -17.359375 8.738281 -17.75 10.53125 -17.75 C 12.3125 -17.75 13.914062 -17.359375 15.34375 -16.578125 C 16.78125 -15.804688 17.90625 -14.738281 18.71875 -13.375 C 19.539062 -12.007812 19.953125 -10.46875 19.953125 -8.75 C 19.953125 -7.03125 19.539062 -5.488281 18.71875 -4.125 C 17.90625 -2.757812 16.78125 -1.6875 15.34375 -0.90625 C 13.914062 -0.132812 12.3125 0.25 10.53125 0.25 Z M 10.53125 -2.59375 C 11.695312 -2.59375 12.742188 -2.851562 13.671875 -3.375 C 14.609375 -3.90625 15.34375 -4.640625 15.875 -5.578125 C 16.40625 -6.523438 16.671875 -7.582031 16.671875 -8.75 C 16.671875 -9.914062 16.40625 -10.96875 15.875 -11.90625 C 15.34375 -12.851562 14.609375 -13.585938 13.671875 -14.109375 C 12.742188 -14.640625 11.695312 -14.90625 10.53125 -14.90625 C 9.363281 -14.90625 8.3125 -14.640625 7.375 -14.109375 C 6.4375 -13.585938 5.703125 -12.851562 5.171875 -11.90625 C 4.640625 -10.96875 4.375 -9.914062 4.375 -8.75 C 4.375 -7.582031 4.640625 -6.523438 5.171875 -5.578125 C 5.703125 -4.640625 6.4375 -3.90625 7.375 -3.375 C 8.3125 -2.851562 9.363281 -2.59375 10.53125 -2.59375 Z M 10.53125 -2.59375 "/></g></g></g><g fill="#3e3f43" fill-opacity="1"><g transform="translate(236.077997, 238.601058)"><g><path d="M 18.34375 -17.5 L 10.71875 0 L 7.53125 0 L -0.125 -17.5 L 3.40625 -17.5 L 9.21875 -4 L 15.09375 -17.5 Z M 18.34375 -17.5 "/></g></g></g><g fill="#3e3f43" fill-opacity="1"><g transform="translate(257.800106, 238.601058)"><g><path d="M 2.34375 -17.5 L 5.59375 -17.5 L 5.59375 0 L 2.34375 0 Z M 2.34375 -17.5 "/></g></g></g><g fill="#3e3f43" fill-opacity="1"><g transform="translate(269.273826, 238.601058)"><g><path d="M 10.453125 0.25 C 8.679688 0.25 7.082031 -0.132812 5.65625 -0.90625 C 4.238281 -1.6875 3.125 -2.757812 2.3125 -4.125 C 1.5 -5.488281 1.09375 -7.03125 1.09375 -8.75 C 1.09375 -10.46875 1.5 -12.007812 2.3125 -13.375 C 3.132812 -14.738281 4.257812 -15.804688 5.6875 -16.578125 C 7.113281 -17.359375 8.707031 -17.75 10.46875 -17.75 C 11.90625 -17.75 13.210938 -17.5 14.390625 -17 C 15.578125 -16.5 16.582031 -15.773438 17.40625 -14.828125 L 15.296875 -12.84375 C 14.035156 -14.21875 12.476562 -14.90625 10.625 -14.90625 C 9.425781 -14.90625 8.347656 -14.640625 7.390625 -14.109375 C 6.441406 -13.585938 5.703125 -12.859375 5.171875 -11.921875 C 4.640625 -10.992188 4.375 -9.9375 4.375 -8.75 C 4.375 -7.5625 4.640625 -6.5 5.171875 -5.5625 C 5.703125 -4.632812 6.441406 -3.90625 7.390625 -3.375 C 8.347656 -2.851562 9.425781 -2.59375 10.625 -2.59375 C 12.476562 -2.59375 14.035156 -3.285156 15.296875 -4.671875 L 17.40625 -2.671875 C 16.582031 -1.722656 15.570312 -1 14.375 -0.5 C 13.1875 0 11.878906 0.25 10.453125 0.25 Z M 10.453125 0.25 "/></g></g></g><g fill="#3e3f43" fill-opacity="1"><g transform="translate(290.945924, 238.601058)"><g><path d="M 8.375 -7.328125 L 5.59375 -4.46875 L 5.59375 0 L 2.34375 0 L 2.34375 -17.5 L 5.59375 -17.5 L 5.59375 -8.53125 L 14.25 -17.5 L 17.90625 -17.5 L 10.546875 -9.671875 L 18.34375 0 L 14.546875 0 Z M 8.375 -7.328125 "/></g></g></g></svg>